<svg width="25" height="25" viewBox="0 0 25 25" fill="none" xmlns="http://www.w3.org/2000/svg">
<path d="M13.7793 16.8561C13.8744 16.9511 14.0285 16.9511 14.1235 16.8561C14.2186 16.7611 14.2186 16.6068 14.1235 16.5118L9.94398 12.3323L14.1235 8.15273C14.2186 8.05767 14.2186 7.90355 14.1235 7.80849C14.0285 7.71342 13.8743 7.71342 13.7792 7.80849L9.4369 12.1508C9.38681 12.2009 9.36335 12.2674 9.36605 12.333C9.36377 12.3981 9.38721 12.464 9.4369 12.5137L13.7793 16.8561Z" fill="#DAA520"/>
<path d="M24.0726 12.3906C24.0726 5.93852 18.8428 0.708728 12.3906 0.708728C5.93852 0.708728 0.708728 5.93852 0.708728 12.3906C0.708728 18.8428 5.93852 24.0726 12.3906 24.0726V24.7813C5.54748 24.7813 0 19.2338 0 12.3906C0 5.54748 5.54748 0 12.3906 0C19.2338 0 24.7813 5.54748 24.7813 12.3906C24.7813 19.2338 19.2338 24.7813 12.3906 24.7813V24.0726C18.8428 24.0726 24.0726 18.8428 24.0726 12.3906Z" fill="#DAA520"/>
</svg>
