<svg width="6" height="10" viewBox="0 0 6 10" fill="none" xmlns="http://www.w3.org/2000/svg">
<path d="M2.87378 0.236084L2.87383 -1.36793e-05H2.87378V0.236084ZM5.5105 3.12476L5.7466 3.12478V3.12476H5.5105ZM5.32495 4.1853L5.10289 4.10512L4.98868 4.4214H5.32495V4.1853ZM5.3269 4.1853L5.53556 4.29577L5.71904 3.94921H5.3269V4.1853ZM5.31812 4.2019L5.10946 4.09144L5.10202 4.10549L5.09653 4.12041L5.31812 4.2019ZM5.11987 4.62964L4.91385 4.51432L4.90946 4.52217L4.90568 4.53033L5.11987 4.62964ZM3.30933 8.53491L3.5234 8.63449L3.52352 8.63422L3.30933 8.53491ZM2.45288 8.53491L2.23871 8.63428L2.23879 8.63444L2.45288 8.53491ZM0.703857 4.76538L0.918024 4.66601L0.911601 4.65217L0.903448 4.63926L0.703857 4.76538ZM0.236084 3.12476H-1.36793e-05V3.12478L0.236084 3.12476ZM2.87378 0.236084L2.87373 0.472182C4.17995 0.472436 5.2744 1.63944 5.2744 3.12476H5.5105H5.7466C5.7466 1.42011 4.48037 0.000298992 2.87383 -1.36793e-05L2.87378 0.236084ZM5.5105 3.12476L5.2744 3.12473C5.27436 3.47119 5.21254 3.80145 5.10289 4.10512L5.32495 4.1853L5.54702 4.26549C5.6746 3.91214 5.74655 3.52772 5.7466 3.12478L5.5105 3.12476ZM5.32495 4.1853V4.4214H5.3269V4.1853V3.94921H5.32495V4.1853ZM5.3269 4.1853L5.11824 4.07484L5.10946 4.09144L5.31812 4.2019L5.52678 4.31237L5.53556 4.29577L5.3269 4.1853ZM5.31812 4.2019L5.09653 4.12041C5.04628 4.25702 4.98456 4.388 4.91385 4.51432L5.11987 4.62964L5.32589 4.74496C5.40735 4.59943 5.47994 4.44589 5.5397 4.2834L5.31812 4.2019ZM5.11987 4.62964L4.90568 4.53033L3.09513 8.43561L3.30933 8.53491L3.52352 8.63422L5.33407 4.72894L5.11987 4.62964ZM3.30933 8.53491L3.09525 8.43534C3.01055 8.61744 2.75155 8.61731 2.66698 8.43538L2.45288 8.53491L2.23879 8.63444C2.49274 9.18073 3.26943 9.18046 3.5234 8.63449L3.30933 8.53491ZM2.45288 8.53491L2.66705 8.43554L0.918024 4.66601L0.703857 4.76538L0.489691 4.86475L2.23871 8.63428L2.45288 8.53491ZM0.703857 4.76538L0.903448 4.63926C0.63263 4.21067 0.47225 3.68939 0.472182 3.12473L0.236084 3.12476L-1.36793e-05 3.12478C6.50734e-05 3.77938 0.186115 4.388 0.504267 4.8915L0.703857 4.76538ZM0.236084 3.12476H0.472182C0.472182 1.63934 1.56731 0.472182 2.87378 0.472182V0.236084V-1.36793e-05C1.26704 -1.36793e-05 -1.36793e-05 1.41987 -1.36793e-05 3.12476H0.236084Z" fill="white"/>
<path d="M2.87378 2.15552C3.31748 2.15553 3.70483 2.55487 3.70483 3.08325C3.70474 3.61154 3.31743 4.01097 2.87378 4.01099C2.43012 4.01099 2.04282 3.61155 2.04272 3.08325C2.04272 2.55486 2.43007 2.15552 2.87378 2.15552Z" stroke="white" stroke-width="0.366896"/>
</svg>
