<svg width="25" height="25" viewBox="0 0 25 25" fill="none" xmlns="http://www.w3.org/2000/svg">
<path d="M11.003 16.856C10.9079 16.951 10.7538 16.951 10.6587 16.856C10.5637 16.7609 10.5637 16.6067 10.6587 16.5116L14.8383 12.3322L10.6587 8.1526C10.5637 8.05755 10.5637 7.90343 10.6587 7.80837C10.7538 7.7133 10.908 7.7133 11.0031 7.80837L15.3454 12.1507C15.3955 12.2008 15.4189 12.2673 15.4162 12.3329C15.4185 12.398 15.3951 12.4639 15.3454 12.5136L11.003 16.856Z" fill="#DAA520"/>
<path d="M0.708751 12.3906C0.708751 5.93852 5.93854 0.708728 12.3907 0.708728C18.8428 0.708728 24.0726 5.93852 24.0726 12.3906C24.0726 18.8428 18.8428 24.0726 12.3907 24.0726V24.7813C19.2338 24.7813 24.7813 19.2338 24.7813 12.3906C24.7813 5.54748 19.2338 0 12.3907 0C5.5475 0 2.28882e-05 5.54748 2.28882e-05 12.3906C2.28882e-05 19.2338 5.5475 24.7813 12.3907 24.7813V24.0726C5.93854 24.0726 0.708751 18.8428 0.708751 12.3906Z" fill="#DAA520"/>
</svg>
